<?xml version="1.0" encoding="UTF-8" standalone="no"?>
<!-- Created with Inkscape (http://www.inkscape.org/) -->

<svg
   xmlns:dc="http://purl.org/dc/elements/1.1/"
   xmlns:cc="http://creativecommons.org/ns#"
   xmlns:rdf="http://www.w3.org/1999/02/22-rdf-syntax-ns#"
   xmlns:svg="http://www.w3.org/2000/svg"
   xmlns="http://www.w3.org/2000/svg"
   xmlns:sodipodi="http://sodipodi.sourceforge.net/DTD/sodipodi-0.dtd"
   xmlns:inkscape="http://www.inkscape.org/namespaces/inkscape"
   id="svg3355"
   version="1.1"
   inkscape:version="0.91 r13725"
   xml:space="preserve"
   width="274.04538"
   height="57.548752"
   viewBox="0 0 274.04538 57.548752"
   sodipodi:docname="LogoMaster.svg"><metadata
     id="metadata3361"><rdf:RDF><cc:Work
         rdf:about=""><dc:format>image/svg+xml</dc:format><dc:type
           rdf:resource="http://purl.org/dc/dcmitype/StillImage" /><dc:title></dc:title></cc:Work></rdf:RDF></metadata><defs
     id="defs3359"><clipPath
       clipPathUnits="userSpaceOnUse"
       id="clipPath3371"><path
         d="M 0,121 286,121 286,0 0,0 0,121 Z"
         id="path3373"
         inkscape:connector-curvature="0" /></clipPath><clipPath
       clipPathUnits="userSpaceOnUse"
       id="clipPath3447"><path
         d="m 34.378,44.229 86.259,0 0,36.971 -86.259,0 0,-36.971 z"
         id="path3449"
         inkscape:connector-curvature="0" /></clipPath><clipPath
       clipPathUnits="userSpaceOnUse"
       id="clipPath3467"><path
         d="M 0,121 286,121 286,0 0,0 0,121 Z"
         id="path3469"
         inkscape:connector-curvature="0" /></clipPath></defs><sodipodi:namedview
     pagecolor="#ffffff"
     bordercolor="#666666"
     borderopacity="1"
     objecttolerance="10"
     gridtolerance="10"
     guidetolerance="10"
     inkscape:pageopacity="0"
     inkscape:pageshadow="2"
     inkscape:window-width="1440"
     inkscape:window-height="815"
     id="namedview3357"
     showgrid="false"
     inkscape:zoom="2"
     inkscape:cx="143.23647"
     inkscape:cy="26.006875"
     inkscape:window-x="0"
     inkscape:window-y="1"
     inkscape:window-maximized="1"
     inkscape:current-layer="g3367"
     fit-margin-left="4"
     fit-margin-top="4"
     fit-margin-right="4"
     fit-margin-bottom="4" /><g
     id="g3363"
     inkscape:groupmode="layer"
     inkscape:label="tshirt-FINAL"
     transform="matrix(1.25,0,0,-1.25,-42.927125,107.16688)"><g
       id="g3367"
       style="fill:#000000;fill-opacity:1"><g
         style="fill:#138a8a;fill-opacity:1"
         transform="translate(107.153,69.7327)"
         id="g3375"><path
           inkscape:connector-curvature="0"
           id="path3377"
           style="fill:#138a8a;fill-opacity:1;fill-rule:nonzero;stroke:none"
           d="m 0,0 c -0.322,-0.213 -0.684,-0.395 -1.083,-0.546 -0.4,-0.152 -0.854,-0.228 -1.364,-0.228 -0.509,0 -0.989,0.086 -1.44,0.257 -0.452,0.17 -0.846,0.412 -1.185,0.725 -0.339,0.312 -0.604,0.693 -0.798,1.141 -0.193,0.448 -0.29,0.949 -0.29,1.503 0,0.555 0.098,1.058 0.295,1.509 0.197,0.451 0.464,0.838 0.802,1.16 0.339,0.322 0.734,0.571 1.185,0.745 0.451,0.174 0.928,0.261 1.431,0.261 0.516,0 0.975,-0.074 1.379,-0.223 0.402,-0.148 0.764,-0.332 1.087,-0.551 L -0.223,5.299 C -0.552,5.511 -0.903,5.686 -1.277,5.821 -1.651,5.956 -2.05,6.024 -2.476,6.024 -2.907,6.024 -3.312,5.95 -3.689,5.802 -4.066,5.653 -4.395,5.441 -4.675,5.163 -4.956,4.886 -5.175,4.553 -5.333,4.163 -5.491,3.772 -5.57,3.339 -5.57,2.862 c 0,-0.477 0.08,-0.909 0.242,-1.296 0.161,-0.387 0.383,-0.715 0.667,-0.986 0.284,-0.271 0.616,-0.48 0.996,-0.629 0.38,-0.148 0.787,-0.222 1.218,-0.222 0.426,0 0.825,0.068 1.199,0.203 0.374,0.136 0.725,0.306 1.054,0.513 L 0,0 Z" /></g><g
         style="fill:#138a8a;fill-opacity:1"
         transform="translate(115.2943,72.5948)"
         id="g3379"><path
           inkscape:connector-curvature="0"
           id="path3381"
           style="fill:#138a8a;fill-opacity:1;fill-rule:nonzero;stroke:none"
           d="M 0,0 C 0,0.445 -0.073,0.86 -0.218,1.247 -0.363,1.634 -0.564,1.969 -0.822,2.253 -1.08,2.537 -1.388,2.759 -1.746,2.92 -2.103,3.081 -2.495,3.162 -2.92,3.162 -3.346,3.162 -3.737,3.081 -4.095,2.92 -4.453,2.759 -4.761,2.537 -5.019,2.253 -5.276,1.969 -5.478,1.634 -5.623,1.247 -5.768,0.86 -5.84,0.445 -5.84,0 c 0,-0.445 0.072,-0.859 0.217,-1.243 0.145,-0.383 0.347,-0.717 0.604,-1 0.258,-0.284 0.566,-0.507 0.924,-0.668 0.358,-0.161 0.749,-0.241 1.175,-0.241 0.425,0 0.817,0.08 1.174,0.241 0.358,0.161 0.666,0.384 0.924,0.668 0.258,0.283 0.459,0.617 0.604,1 C -0.073,-0.859 0,-0.445 0,0 M 0.59,0 C 0.59,-0.522 0.498,-1.006 0.314,-1.45 0.13,-1.895 -0.121,-2.281 -0.44,-2.606 -0.759,-2.932 -1.133,-3.185 -1.562,-3.365 -1.991,-3.545 -2.45,-3.636 -2.94,-3.636 c -0.483,0 -0.937,0.091 -1.363,0.271 -0.426,0.18 -0.796,0.433 -1.112,0.759 -0.316,0.325 -0.564,0.711 -0.744,1.156 -0.181,0.444 -0.272,0.928 -0.272,1.45 0,0.522 0.093,1.007 0.276,1.455 0.184,0.448 0.435,0.835 0.754,1.161 0.32,0.325 0.693,0.58 1.122,0.764 0.429,0.183 0.888,0.275 1.378,0.275 0.483,0 0.938,-0.092 1.364,-0.275 C -1.112,3.196 -0.741,2.941 -0.426,2.616 -0.11,2.29 0.138,1.903 0.319,1.455 0.499,1.007 0.59,0.522 0.59,0" /></g><g
         style="fill:#138a8a;fill-opacity:1"
         transform="translate(123.1751,72.6626)"
         id="g3383"><path
           inkscape:connector-curvature="0"
           id="path3385"
           style="fill:#138a8a;fill-opacity:1;fill-rule:nonzero;stroke:none"
           d="M 0,0 C 0,0.425 -0.074,0.823 -0.223,1.194 -0.371,1.565 -0.59,1.89 -0.88,2.171 -1.17,2.451 -1.529,2.672 -1.958,2.833 -2.387,2.994 -2.882,3.075 -3.442,3.075 -3.668,3.075 -3.887,3.068 -4.1,3.055 -4.312,3.042 -4.49,3.023 -4.632,2.997 l 0,-6.121 c 0.149,-0.025 0.326,-0.044 0.532,-0.058 0.206,-0.012 0.442,-0.019 0.706,-0.019 0.561,0 1.054,0.083 1.48,0.247 0.425,0.164 0.779,0.39 1.063,0.677 0.284,0.286 0.496,0.625 0.639,1.015 C -0.071,-0.872 0,-0.451 0,0 m 0.58,0 c 0,-0.49 -0.086,-0.956 -0.256,-1.397 -0.171,-0.442 -0.422,-0.832 -0.754,-1.17 -0.332,-0.339 -0.748,-0.608 -1.248,-0.808 -0.499,-0.2 -1.078,-0.3 -1.735,-0.3 -0.342,0 -0.666,0.012 -0.972,0.034 -0.307,0.023 -0.569,0.05 -0.788,0.082 l 0,6.991 c 0.219,0.033 0.477,0.06 0.774,0.083 0.296,0.022 0.612,0.034 0.947,0.034 0.657,0 1.237,-0.1 1.741,-0.3 0.502,-0.2 0.923,-0.464 1.262,-0.793 C -0.111,2.127 0.145,1.75 0.319,1.324 0.493,0.899 0.58,0.457 0.58,0" /></g><g
         style="fill:#138a8a;fill-opacity:1"
         transform="translate(125.8727,69.0557)"
         id="g3387"><path
           inkscape:connector-curvature="0"
           id="path3389"
           style="fill:#138a8a;fill-opacity:1;fill-rule:nonzero;stroke:none"
           d="m 0,0 0,7.088 4.003,0 0,-0.484 -3.461,0 0,-2.765 3.123,0 0,-0.484 -3.123,0 0,-2.862 3.461,0 L 4.003,0 0,0 Z" /></g><g
         style="fill:#138a8a;fill-opacity:1"
         transform="translate(135.3583,75.66)"
         id="g3391"><path
           inkscape:connector-curvature="0"
           id="path3393"
           style="fill:#138a8a;fill-opacity:1;fill-rule:nonzero;stroke:none"
           d="m 0,0 0,-2.891 3.123,0 0,-0.484 -3.123,0 0,-3.229 -0.542,0 0,7.087 4.004,0 L 3.462,0 0,0 Z" /></g><g
         style="fill:#138a8a;fill-opacity:1"
         transform="translate(146.9324,72.5948)"
         id="g3395"><path
           inkscape:connector-curvature="0"
           id="path3397"
           style="fill:#138a8a;fill-opacity:1;fill-rule:nonzero;stroke:none"
           d="M 0,0 C 0,0.445 -0.073,0.86 -0.218,1.247 -0.363,1.634 -0.564,1.969 -0.822,2.253 -1.08,2.537 -1.388,2.759 -1.746,2.92 -2.103,3.081 -2.495,3.162 -2.92,3.162 -3.346,3.162 -3.737,3.081 -4.095,2.92 -4.453,2.759 -4.761,2.537 -5.019,2.253 -5.276,1.969 -5.478,1.634 -5.623,1.247 -5.768,0.86 -5.84,0.445 -5.84,0 c 0,-0.445 0.072,-0.859 0.217,-1.243 0.145,-0.383 0.347,-0.717 0.604,-1 0.258,-0.284 0.566,-0.507 0.924,-0.668 0.358,-0.161 0.749,-0.241 1.175,-0.241 0.425,0 0.817,0.08 1.174,0.241 0.358,0.161 0.666,0.384 0.924,0.668 0.258,0.283 0.459,0.617 0.604,1 C -0.073,-0.859 0,-0.445 0,0 M 0.59,0 C 0.59,-0.522 0.498,-1.006 0.314,-1.45 0.13,-1.895 -0.121,-2.281 -0.44,-2.606 -0.759,-2.932 -1.133,-3.185 -1.562,-3.365 -1.991,-3.545 -2.45,-3.636 -2.94,-3.636 c -0.483,0 -0.937,0.091 -1.363,0.271 -0.426,0.18 -0.796,0.433 -1.112,0.759 -0.316,0.325 -0.564,0.711 -0.744,1.156 -0.181,0.444 -0.272,0.928 -0.272,1.45 0,0.522 0.093,1.007 0.276,1.455 0.184,0.448 0.435,0.835 0.754,1.161 0.32,0.325 0.693,0.58 1.122,0.764 0.429,0.183 0.888,0.275 1.378,0.275 0.483,0 0.938,-0.092 1.364,-0.275 C -1.112,3.196 -0.741,2.941 -0.426,2.616 -0.11,2.29 0.138,1.903 0.319,1.455 0.499,1.007 0.59,0.522 0.59,0" /></g><g
         style="fill:#138a8a;fill-opacity:1"
         transform="translate(153.2665,74.0647)"
         id="g3399"><path
           inkscape:connector-curvature="0"
           id="path3401"
           style="fill:#138a8a;fill-opacity:1;fill-rule:nonzero;stroke:none"
           d="m 0,0 c 0,0.238 -0.044,0.457 -0.131,0.657 -0.087,0.2 -0.217,0.373 -0.392,0.518 -0.174,0.145 -0.388,0.259 -0.643,0.343 -0.254,0.084 -0.549,0.126 -0.884,0.126 -0.342,0 -0.683,-0.029 -1.025,-0.087 l 0,-3.201 c 0.122,-0.013 0.264,-0.026 0.425,-0.039 0.162,-0.013 0.316,-0.019 0.464,-0.019 0.716,0 1.259,0.153 1.629,0.459 C -0.186,-0.937 0,-0.522 0,0 m 0.338,-5.009 -1.934,2.881 c -0.096,-0.012 -0.196,-0.022 -0.3,-0.029 -0.103,-0.006 -0.209,-0.009 -0.319,-0.009 -0.128,0 -0.275,0.003 -0.439,0.009 -0.165,0.007 -0.305,0.017 -0.421,0.029 l 0,-2.881 -0.551,0 0,7.02 c 0.264,0.032 0.514,0.06 0.749,0.082 0.235,0.023 0.492,0.034 0.769,0.034 0.438,0 0.825,-0.051 1.16,-0.155 0.335,-0.103 0.615,-0.246 0.841,-0.43 C 0.119,1.359 0.29,1.138 0.406,0.88 0.522,0.622 0.58,0.338 0.58,0.029 0.58,-0.455 0.438,-0.877 0.154,-1.238 -0.13,-1.599 -0.536,-1.857 -1.064,-2.012 l 2.06,-2.997 -0.658,0 z" /></g><g
         style="fill:#000000;fill-opacity:1"
         transform="translate(113.2661,56.9535)"
         id="g3403"><path
           inkscape:connector-curvature="0"
           id="path3405"
           style="fill:#000000;fill-opacity:1;fill-rule:nonzero;stroke:none"
           d="m 0,0 0,-6.93 c -0.805,-0.462 -1.647,-0.821 -2.525,-1.079 -0.877,-0.257 -1.871,-0.386 -2.979,-0.386 -1.07,0 -2.067,0.182 -2.99,0.544 -0.924,0.363 -1.73,0.875 -2.416,1.535 -0.686,0.66 -1.227,1.448 -1.623,2.366 -0.396,0.917 -0.595,1.93 -0.595,3.039 0,1.109 0.201,2.125 0.605,3.049 0.402,0.924 0.953,1.716 1.652,2.376 0.7,0.66 1.526,1.172 2.475,1.535 0.951,0.363 1.974,0.544 3.07,0.544 0.95,0 1.818,-0.112 2.603,-0.336 0.786,-0.225 1.541,-0.529 2.267,-0.911 L -1.862,2.633 C -2.905,3.174 -3.987,3.445 -5.108,3.445 -5.835,3.445 -6.472,3.339 -7.019,3.128 -7.567,2.917 -8.029,2.617 -8.405,2.227 -8.781,1.838 -9.065,1.376 -9.256,0.842 -9.448,0.307 -9.544,-0.277 -9.544,-0.911 c 0,-0.686 0.109,-1.31 0.327,-1.871 0.218,-0.561 0.518,-1.033 0.901,-1.416 0.383,-0.382 0.832,-0.68 1.346,-0.89 0.515,-0.212 1.07,-0.317 1.663,-0.317 0.541,0 0.967,0.029 1.277,0.089 0.31,0.059 0.598,0.161 0.862,0.307 l 0,2.138 -2.91,0 0,2.871 L 0,0 Z" /></g><g
         style="fill:#000000;fill-opacity:1"
         transform="translate(124.5312,58.478)"
         id="g3407"><path
           inkscape:connector-curvature="0"
           id="path3409"
           style="fill:#000000;fill-opacity:1;fill-rule:nonzero;stroke:none"
           d="M 0,0 C 0,0.607 -0.218,1.079 -0.654,1.416 -1.089,1.752 -1.67,1.92 -2.396,1.92 -2.66,1.92 -2.884,1.914 -3.069,1.901 -3.254,1.887 -3.465,1.861 -3.703,1.822 l 0,-4 c 0.225,-0.026 0.41,-0.043 0.555,-0.049 0.145,-0.007 0.317,-0.011 0.515,-0.011 0.805,0 1.445,0.189 1.92,0.565 C -0.237,-1.297 0,-0.739 0,0 m 0.594,-9.682 -2.475,4.732 c -0.106,-0.013 -0.201,-0.019 -0.287,-0.019 l -0.287,0 c -0.251,0 -0.462,0.002 -0.634,0.009 -0.171,0.007 -0.376,0.017 -0.614,0.03 l 0,-4.752 -3.366,0 0,14.375 c 0.621,0.065 1.275,0.121 1.961,0.168 0.686,0.046 1.458,0.069 2.316,0.069 1.135,0 2.099,-0.125 2.891,-0.376 C 0.891,4.303 1.541,3.96 2.049,3.524 2.557,3.089 2.927,2.577 3.158,1.99 3.389,1.402 3.504,0.779 3.504,0.119 3.504,-0.752 3.286,-1.554 2.851,-2.287 2.416,-3.019 1.802,-3.617 1.01,-4.078 l 3.405,-5.604 -3.821,0 z" /></g><g
         style="fill:#000000;fill-opacity:1"
         transform="translate(132.1935,48.796)"
         id="g3411"><path
           inkscape:connector-curvature="0"
           id="path3413"
           style="fill:#000000;fill-opacity:1;fill-rule:nonzero;stroke:none"
           d="m 0,0 0,14.513 9.187,0 0,-3.089 -5.821,0 0,-2.593 5.306,0 0,-2.931 -5.306,0 0,-2.831 5.821,0 L 9.187,0 0,0 Z" /></g><g
         style="fill:#000000;fill-opacity:1"
         transform="translate(145.8156,48.796)"
         id="g3415"><path
           inkscape:connector-curvature="0"
           id="path3417"
           style="fill:#000000;fill-opacity:1;fill-rule:nonzero;stroke:none"
           d="m 0,0 0,14.513 9.187,0 0,-3.089 -5.821,0 0,-2.593 5.306,0 0,-2.931 -5.306,0 0,-2.831 5.821,0 L 9.187,0 0,0 Z" /></g><g
         style="fill:#000000;fill-opacity:1"
         transform="translate(171.5547,48.5188)"
         id="g3419"><path
           inkscape:connector-curvature="0"
           id="path3421"
           style="fill:#000000;fill-opacity:1;fill-rule:nonzero;stroke:none"
           d="m 0,0 -8.751,7.86 0,-7.583 -3.366,0 0,14.711 0.455,0.079 8.633,-7.801 0,7.524 3.366,0 0,-14.731 L 0,0 Z" /></g><g
         style="fill:#000000;fill-opacity:1"
         transform="translate(185.4931,53.0727)"
         id="g3423"><path
           inkscape:connector-curvature="0"
           id="path3425"
           style="fill:#000000;fill-opacity:1;fill-rule:nonzero;stroke:none"
           d="m 0,0 c 0,-0.581 -0.105,-1.142 -0.316,-1.683 -0.212,-0.542 -0.532,-1.023 -0.961,-1.446 -0.429,-0.422 -0.967,-0.758 -1.613,-1.009 -0.647,-0.251 -1.406,-0.376 -2.277,-0.376 -0.41,0 -0.835,0.039 -1.278,0.119 -0.442,0.078 -0.877,0.184 -1.306,0.317 -0.429,0.131 -0.842,0.286 -1.237,0.464 -0.396,0.178 -0.753,0.373 -1.07,0.585 l 0.931,3.049 c 0.594,-0.423 1.247,-0.763 1.96,-1.02 0.713,-0.257 1.412,-0.386 2.098,-0.386 0.595,0 1.017,0.122 1.268,0.366 0.25,0.244 0.376,0.545 0.376,0.901 0,0.185 -0.029,0.36 -0.089,0.525 -0.06,0.165 -0.185,0.333 -0.376,0.505 -0.192,0.171 -0.456,0.346 -0.792,0.524 -0.337,0.179 -0.783,0.38 -1.336,0.604 -0.634,0.264 -1.172,0.551 -1.615,0.862 -0.441,0.31 -0.798,0.643 -1.069,1 -0.27,0.356 -0.465,0.735 -0.583,1.138 -0.12,0.402 -0.179,0.822 -0.179,1.257 0,0.528 0.109,1.043 0.327,1.544 0.218,0.502 0.538,0.947 0.96,1.337 0.422,0.389 0.954,0.703 1.594,0.94 0.64,0.238 1.383,0.357 2.227,0.357 0.396,0 0.789,-0.033 1.179,-0.099 0.388,-0.066 0.762,-0.152 1.118,-0.258 0.356,-0.105 0.686,-0.224 0.99,-0.356 0.303,-0.132 0.561,-0.271 0.772,-0.416 L -1.148,6.336 C -1.359,6.481 -1.597,6.623 -1.861,6.761 -2.125,6.9 -2.399,7.026 -2.683,7.138 -2.967,7.25 -3.25,7.342 -3.534,7.415 -3.818,7.487 -4.092,7.524 -4.356,7.524 -4.976,7.524 -5.418,7.405 -5.682,7.168 -5.946,6.93 -6.078,6.659 -6.078,6.356 c 0,-0.238 0.046,-0.443 0.139,-0.614 0.092,-0.172 0.244,-0.33 0.455,-0.475 0.211,-0.146 0.478,-0.291 0.802,-0.436 0.323,-0.146 0.709,-0.317 1.158,-0.515 0.673,-0.29 1.237,-0.591 1.693,-0.901 0.456,-0.31 0.818,-0.64 1.089,-0.99 0.27,-0.349 0.461,-0.726 0.574,-1.128 C -0.056,0.894 0,0.462 0,0" /></g><g
         style="fill:#000000;fill-opacity:1"
         transform="translate(196.5019,53.2704)"
         id="g3427"><path
           inkscape:connector-curvature="0"
           id="path3429"
           style="fill:#000000;fill-opacity:1;fill-rule:nonzero;stroke:none"
           d="m 0,0 c 0,0.554 -0.218,0.984 -0.654,1.287 -0.435,0.304 -1.102,0.456 -1.999,0.456 -0.502,0 -0.924,-0.02 -1.268,-0.06 l 0,-3.365 c 0.238,-0.027 0.446,-0.044 0.624,-0.05 0.179,-0.007 0.439,-0.01 0.782,-0.01 0.858,0 1.492,0.151 1.901,0.456 C -0.205,-0.983 0,-0.554 0,0 m -0.237,5.663 c 0,0.436 -0.183,0.808 -0.545,1.119 -0.363,0.31 -0.901,0.465 -1.614,0.465 C -2.7,7.247 -2.97,7.234 -3.208,7.207 -3.445,7.181 -3.683,7.148 -3.921,7.108 l 0,-3.029 c 0.185,-0.027 0.363,-0.043 0.535,-0.05 0.172,-0.006 0.409,-0.009 0.713,-0.009 0.818,0 1.428,0.141 1.831,0.425 0.403,0.284 0.605,0.69 0.605,1.218 m 3.88,-6.019 c 0,-0.567 -0.135,-1.109 -0.406,-1.624 -0.27,-0.515 -0.673,-0.966 -1.208,-1.356 -0.534,-0.39 -1.207,-0.7 -2.02,-0.931 -0.811,-0.23 -1.765,-0.346 -2.86,-0.346 -0.634,0 -1.337,0.027 -2.109,0.079 -0.772,0.053 -1.514,0.126 -2.227,0.218 l 0,14.176 c 0.263,0.04 0.567,0.08 0.91,0.119 0.344,0.04 0.7,0.073 1.069,0.099 0.37,0.027 0.736,0.05 1.099,0.069 0.363,0.02 0.69,0.03 0.98,0.03 1.057,0 1.98,-0.109 2.772,-0.326 C 0.436,9.633 1.099,9.342 1.633,8.979 2.168,8.616 2.567,8.2 2.831,7.732 3.095,7.263 3.227,6.778 3.227,6.277 3.227,5.511 3.019,4.868 2.604,4.346 2.188,3.825 1.564,3.393 0.733,3.049 1.722,2.746 2.455,2.31 2.93,1.743 3.405,1.175 3.643,0.476 3.643,-0.356" /></g><g
         style="fill:#000000;fill-opacity:1"
         transform="translate(214.2038,56.0425)"
         id="g3431"><path
           inkscape:connector-curvature="0"
           id="path3433"
           style="fill:#000000;fill-opacity:1;fill-rule:nonzero;stroke:none"
           d="M 0,0 C 0,0.66 -0.092,1.264 -0.277,1.812 -0.462,2.359 -0.722,2.831 -1.059,3.227 -1.396,3.623 -1.798,3.933 -2.267,4.158 -2.735,4.382 -3.26,4.495 -3.841,4.495 -4.408,4.495 -4.93,4.382 -5.405,4.158 -5.88,3.933 -6.286,3.623 -6.623,3.227 -6.959,2.831 -7.22,2.359 -7.405,1.812 -7.589,1.264 -7.682,0.66 -7.682,0 c 0,-0.647 0.093,-1.244 0.277,-1.792 0.185,-0.548 0.446,-1.023 0.782,-1.425 0.337,-0.403 0.743,-0.717 1.218,-0.941 0.475,-0.224 0.997,-0.336 1.564,-0.336 0.581,0 1.106,0.112 1.574,0.336 0.469,0.224 0.871,0.538 1.208,0.941 0.337,0.402 0.597,0.877 0.782,1.425 C -0.092,-1.244 0,-0.647 0,0 M 3.603,0 C 3.603,-1.069 3.422,-2.059 3.059,-2.97 2.696,-3.88 2.185,-4.67 1.525,-5.336 0.865,-6.003 0.076,-6.527 -0.841,-6.91 -1.759,-7.292 -2.779,-7.484 -3.9,-7.484 c -1.122,0 -2.139,0.192 -3.049,0.574 -0.911,0.383 -1.687,0.907 -2.327,1.574 -0.64,0.666 -1.132,1.456 -1.475,2.366 -0.343,0.911 -0.515,1.901 -0.515,2.97 0,1.069 0.182,2.062 0.545,2.98 0.362,0.917 0.871,1.709 1.525,2.376 0.653,0.666 1.441,1.191 2.365,1.574 0.925,0.383 1.947,0.574 3.07,0.574 1.121,0 2.135,-0.191 3.039,-0.574 C 0.181,6.547 0.954,6.022 1.594,5.356 2.234,4.689 2.729,3.897 3.079,2.98 3.429,2.062 3.603,1.069 3.603,0" /></g><g
         style="fill:#000000;fill-opacity:1"
         transform="translate(228.3427,58.478)"
         id="g3435"><path
           inkscape:connector-curvature="0"
           id="path3437"
           style="fill:#000000;fill-opacity:1;fill-rule:nonzero;stroke:none"
           d="M 0,0 C 0,0.607 -0.218,1.079 -0.654,1.416 -1.089,1.752 -1.67,1.92 -2.396,1.92 -2.66,1.92 -2.884,1.914 -3.069,1.901 -3.254,1.887 -3.465,1.861 -3.703,1.822 l 0,-4 c 0.225,-0.026 0.41,-0.043 0.555,-0.049 0.145,-0.007 0.317,-0.011 0.515,-0.011 0.805,0 1.445,0.189 1.92,0.565 C -0.237,-1.297 0,-0.739 0,0 m 0.594,-9.682 -2.475,4.732 c -0.106,-0.013 -0.201,-0.019 -0.287,-0.019 l -0.287,0 c -0.251,0 -0.462,0.002 -0.634,0.009 -0.171,0.007 -0.376,0.017 -0.614,0.03 l 0,-4.752 -3.366,0 0,14.375 c 0.621,0.065 1.275,0.121 1.961,0.168 0.686,0.046 1.458,0.069 2.316,0.069 1.135,0 2.099,-0.125 2.891,-0.376 C 0.891,4.303 1.541,3.96 2.049,3.524 2.557,3.089 2.927,2.577 3.158,1.99 3.389,1.402 3.504,0.779 3.504,0.119 3.504,-0.752 3.286,-1.554 2.851,-2.287 2.416,-3.019 1.802,-3.617 1.01,-4.078 l 3.405,-5.604 -3.821,0 z" /></g><g
         style="fill:#000000;fill-opacity:1"
         transform="translate(246.775,56.0425)"
         id="g3439"><path
           inkscape:connector-curvature="0"
           id="path3441"
           style="fill:#000000;fill-opacity:1;fill-rule:nonzero;stroke:none"
           d="M 0,0 C 0,0.66 -0.092,1.264 -0.277,1.812 -0.462,2.359 -0.722,2.831 -1.059,3.227 -1.396,3.623 -1.798,3.933 -2.267,4.158 -2.735,4.382 -3.26,4.495 -3.841,4.495 -4.408,4.495 -4.93,4.382 -5.405,4.158 -5.88,3.933 -6.286,3.623 -6.623,3.227 -6.959,2.831 -7.22,2.359 -7.405,1.812 -7.589,1.264 -7.682,0.66 -7.682,0 c 0,-0.647 0.093,-1.244 0.277,-1.792 0.185,-0.548 0.446,-1.023 0.782,-1.425 0.337,-0.403 0.743,-0.717 1.218,-0.941 0.475,-0.224 0.997,-0.336 1.564,-0.336 0.581,0 1.106,0.112 1.574,0.336 0.469,0.224 0.871,0.538 1.208,0.941 0.337,0.402 0.597,0.877 0.782,1.425 C -0.092,-1.244 0,-0.647 0,0 M 3.603,0 C 3.603,-1.069 3.422,-2.059 3.059,-2.97 2.696,-3.88 2.185,-4.67 1.525,-5.336 0.865,-6.003 0.076,-6.527 -0.841,-6.91 -1.759,-7.292 -2.779,-7.484 -3.9,-7.484 c -1.122,0 -2.139,0.192 -3.049,0.574 -0.911,0.383 -1.687,0.907 -2.327,1.574 -0.64,0.666 -1.132,1.456 -1.475,2.366 -0.343,0.911 -0.515,1.901 -0.515,2.97 0,1.069 0.182,2.062 0.545,2.98 0.362,0.917 0.871,1.709 1.525,2.376 0.653,0.666 1.441,1.191 2.365,1.574 0.925,0.383 1.947,0.574 3.07,0.574 1.121,0 2.135,-0.191 3.039,-0.574 C 0.181,6.547 0.954,6.022 1.594,5.356 2.234,4.689 2.729,3.897 3.079,2.98 3.429,2.062 3.603,1.069 3.603,0" /></g></g><g
       id="g3443"><g
         id="g3445"
         clip-path="url(#clipPath3447)"><g
           id="g3451"
           transform="translate(55.0897,62.7142)"><path
             d="m 0,0 -17.548,-25.392 0,-19.322 L 13.353,0 l -30.901,44.714 0,-19.322 L 0,0 Z"
             style="fill:#d14127;fill-opacity:1;fill-rule:nonzero;stroke:none"
             id="path3453"
             inkscape:connector-curvature="0" /></g><g
           id="g3455"
           transform="translate(68.5963,62.7142)"><path
             d="m 0,0 -17.548,-25.392 0,-19.322 L 13.353,0 l -30.901,44.714 0,-19.322 L 0,0 Z"
             style="fill:#e6e4d5;fill-opacity:1;fill-rule:nonzero;stroke:none"
             id="path3457"
             inkscape:connector-curvature="0" /></g><g
           id="g3459"
           transform="translate(82.1029,62.7142)"><path
             d="m 0,0 -17.548,-25.392 0,-19.322 L 13.353,0 l -30.901,44.714 0,-19.322 L 0,0 Z"
             style="fill:#138a8a;fill-opacity:1;fill-rule:nonzero;stroke:none"
             id="path3461"
             inkscape:connector-curvature="0" /></g></g></g><g
       id="g3463"><g
         id="g3465"
         clip-path="url(#clipPath3467)"><g
           id="g3471"
           transform="translate(41.1394,81.2)"><path
             d="M 0,0 41.259,0 54.317,-18.486 41.259,-36.972 0,-36.972 13.058,-18.486 0,0 Z"
             style="fill:none;stroke:#ffffff;stroke-width:2.66700006;stroke-linecap:butt;stroke-linejoin:miter;stroke-miterlimit:10;stroke-dasharray:none;stroke-opacity:1"
             id="path3473"
             inkscape:connector-curvature="0" /></g></g></g></g></svg>